# xmcd
#
# Track frame offsets:
#	150
#	12748
#	23470
#	33335
#	45748
#	54115
#	61675
#	70940
#	82158
#	91723
#	102823
#	115345
#	126150
#	136053
#	146703
#	154890
#	164785
#	176750
#	188418
#	198230
#
# Disc length: 2810 seconds
#
# Revision: 0
# Processed by: cddbd v1.4PL0 Copyright (c) Steve Scherf et al.
# Submitted via: MusicWizard 6.0.0
#
DISCID=0a0af814
DTITLE=Johnny Cash - 20 Super Hits
DYEAR=1991
DGENRE=Country
TTITLE0=Folsom Prison Blues
TTITLE1=Fools Hall Of Fame
TTITLE2=Get Rhythm
TTITLE3=Give My Love To Rose
TTITLE4=Country Boy
TTITLE5=Come In Stranger
TTITLE6=Luther's Boogie
TTITLE7=Mean Eyed Cat
TTITLE8=New Mexico
TTITLE9=Oh Lonesome Me
TTITLE10=I Walk The Line
TTITLE11=Cry, Cry, Cry
TTITLE12=Ballad Of A Teenage Queen
TTITLE13=I Just Thought You'd Like To Know
TTITLE14=Sugartime
TTITLE15=Born To Loose
TTITLE16=You're The Nearest Thing To Heaven
TTITLE17=So Doggone Lonesome
TTITLE18=Story Of A Broken Heart
TTITLE19=Next In Line
EXTD=(c)1991 Bellaphon Germany\nRe-release of Bellaphon/SUN LP\nupc 4003099967120
EXTT0=
EXTT1=
EXTT2=
EXTT3=
EXTT4=
EXTT5=
EXTT6=
EXTT7=
EXTT8=
EXTT9=
EXTT10=
EXTT11=
EXTT12=
EXTT13=
EXTT14=
EXTT15=
EXTT16=
EXTT17=
EXTT18=
EXTT19=
PLAYORDER=
